<svg xmlns="http://www.w3.org/2000/svg" version="1.1" xmlns:xlink="http://www.w3.org/1999/xlink" xmlns:svgjs="http://svgjs.dev/svgjs" width="1000" height="1000" viewBox="0 0 1000 1000"><rect width="1000" height="1000" fill="#ed1703"></rect><g transform="matrix(0.7,0,0,0.7,149.57578378756648,282.1265587044535)"><svg viewBox="0 0 396 247" data-background-color="#ed1703" preserveAspectRatio="xMidYMid meet" height="623" width="1000" xmlns="http://www.w3.org/2000/svg" xmlns:xlink="http://www.w3.org/1999/xlink"><g id="tight-bounds" transform="matrix(1,0,0,1,0.23998522677038636,-0.09999999999999432)"><svg viewBox="0 0 395.52 247.2" height="247.2" width="395.52"><g><svg></svg></g><g><svg viewBox="0 0 395.52 247.2" height="247.2" width="395.52"><g><g><path xmlns="http://www.w3.org/2000/svg" d="M88.54 0c5.25 0.228 12.052 0.457 20.406 0.685 8.308 0.228 16.571 0.342 24.789 0.342 10.956 0 21.41-0.114 31.362-0.342 9.906-0.228 16.914-0.342 21.022-0.343 28.988 0 50.673 5.524 65.053 16.572 14.38 11.093 21.57 25.428 21.57 43.003 0 1.313-0.049 2.64-0.147 3.98l-41.624 0c0-0.071 0-0.142 0-0.214 0-18.032-3.88-32.024-11.641-41.976-7.761-9.906-21.228-14.859-40.401-14.859-9.815 0-16.252 1.94-19.31 5.82-3.104 3.88-4.656 11.755-4.657 23.625l0 27.604-39.374 0v-27.604c0-8.445-0.616-14.677-1.849-18.695-1.278-3.972-3.903-6.688-7.874-8.148-4.017-1.506-9.792-2.374-17.325-2.602zM267.948 206.457c2.054 9.815 4.291 16.777 6.711 20.885 2.374 4.109 5.957 6.163 10.751 6.163 3.652-0.228 6.665-1.324 9.039-3.287 2.42-1.917 4.999-4.588 7.738-8.012l4.793 3.766c-5.25 7.076-10.728 12.371-16.434 15.887-5.706 3.561-13.353 5.341-22.94 5.341-9.815 0-18.192-2.579-25.131-7.738-6.985-5.113-11.961-14.859-14.928-29.239l-5.384-26.92h40.111zM154.962 206.114c0 8.217 0.685 14.38 2.055 18.489 1.37 4.109 3.994 6.848 7.874 8.217 3.88 1.37 9.587 2.283 17.119 2.739v6.848c-5.478-0.457-12.371-0.753-20.679-0.891-8.354-0.091-16.868-0.137-25.542-0.136-9.587 0-18.534 0.046-26.843 0.136-8.354 0.137-15.156 0.434-20.406 0.891v-6.848c7.761-0.457 13.581-1.37 17.462-2.739 3.88-1.37 6.46-4.109 7.737-8.217 1.233-4.109 1.849-10.271 1.849-18.489v-22.811h39.374z" fill="#f7e1e1" fill-rule="nonzero" stroke="none" stroke-width="1" stroke-linecap="butt" stroke-linejoin="miter" stroke-miterlimit="10" stroke-dasharray="" stroke-dashoffset="0" font-family="none" font-weight="none" font-size="none" text-anchor="none" style="mix-blend-mode: normal" data-fill-palette-color="tertiary"></path></g></g><g transform="matrix(1,0,0,1,0,77.38466218192454)"><svg viewBox="0 0 395.52 92.43067563615092" height="92.43067563615092" width="395.52"><g><svg viewBox="0 0 395.52 92.43067563615092" height="92.43067563615092" width="395.52"><g><svg viewBox="0 0 395.52 92.43067563615092" height="92.43067563615092" width="395.52"><g><svg viewBox="0 0 395.52 92.43067563615092" height="92.43067563615092" width="395.52"><g id="textblocktransform"><svg viewBox="0 0 395.52 92.43067563615092" height="92.43067563615092" width="395.52" id="textblock"><g><svg viewBox="0 0 395.52 92.43067563615092" height="92.43067563615092" width="395.52"><g transform="matrix(1,0,0,1,0,0)"><svg width="395.52" viewBox="1.350000023841858 -39.150001525878906 170.9399871826172 39.95000076293945" height="92.43067563615092" data-palette-color="#f7e1e1"><path d="M17.45-26.5L17.45-26.5Q18.9-26.5 19.93-25.9 20.95-25.3 21.48-24.38 22-23.45 22-22.3L22-22.3Q22-20.85 21.13-19.83 20.25-18.8 18.8-18.8L18.8-18.8Q17.55-18.8 16.68-19.55 15.8-20.3 15.8-21.6L15.8-21.6Q15.8-22.7 16.38-23.48 16.95-24.25 17.7-24.7L17.7-24.7Q17.2-25.1 16.5-25.05L16.5-25.05Q14.7-24.95 13.33-23.58 11.95-22.2 11.15-20.25 10.35-18.3 10.35-16.65L10.35-16.65 10.35-5.15Q10.35-2.7 11.7-1.88 13.05-1.05 15.45-1.05L15.45-1.05 15.45 0Q14.3-0.05 12.18-0.13 10.05-0.2 7.7-0.2L7.7-0.2Q5.9-0.2 4.1-0.13 2.3-0.05 1.35 0L1.35 0 1.35-1.05Q3.3-1.05 4.13-1.8 4.95-2.55 4.95-4.65L4.95-4.65 4.95-20.35Q4.95-22.6 4.2-23.68 3.45-24.75 1.35-24.75L1.35-24.75 1.35-25.8Q2.95-25.65 4.45-25.65L4.45-25.65Q6.15-25.65 7.63-25.83 9.1-26 10.35-26.35L10.35-26.35 10.35-20.6Q10.95-22.05 11.95-23.4 12.95-24.75 14.35-25.63 15.75-26.5 17.45-26.5ZM29.95-38.4L29.95-38.4Q31.5-38.4 32.55-37.43 33.6-36.45 33.6-35L33.6-35Q33.6-33.55 32.55-32.58 31.5-31.6 29.95-31.6L29.95-31.6Q28.4-31.6 27.35-32.58 26.3-33.55 26.3-35L26.3-35Q26.3-36.45 27.35-37.43 28.4-38.4 29.95-38.4ZM32.95-26.35L32.95-26.35 32.95-4.65Q32.95-2.55 33.77-1.8 34.6-1.05 36.55-1.05L36.55-1.05 36.55 0Q35.7-0.05 33.92-0.13 32.15-0.2 30.3-0.2L30.3-0.2Q28.55-0.2 26.7-0.13 24.85-0.05 23.95 0L23.95 0 23.95-1.05Q25.9-1.05 26.72-1.8 27.55-2.55 27.55-4.65L27.55-4.65 27.55-20.35Q27.55-22.6 26.8-23.68 26.05-24.75 23.95-24.75L23.95-24.75 23.95-25.8Q25.55-25.65 27.05-25.65L27.05-25.65Q28.75-25.65 30.22-25.83 31.7-26 32.95-26.35ZM48.24-26.5L48.24-26.5Q50.24-26.5 51.72-25.88 53.2-25.25 53.84-24.75L53.84-24.75Q55.5-23.45 55.89-26.45L55.89-26.45 57-26.45Q56.89-25.05 56.84-23.08 56.8-21.1 56.8-17.85L56.8-17.85 55.7-17.85Q55.39-19.7 54.67-21.45 53.95-23.2 52.57-24.35 51.2-25.5 48.99-25.5L48.99-25.5Q47.34-25.5 46.24-24.58 45.14-23.65 45.14-21.85L45.14-21.85Q45.14-20.35 46.05-19.25 46.95-18.15 48.37-17.2 49.8-16.25 51.45-15.15L51.45-15.15Q54.2-13.3 56.09-11.4 58-9.5 58-6.45L58-6.45Q58-4.15 56.77-2.55 55.55-0.95 53.55-0.13 51.55 0.7 49.14 0.7L49.14 0.7Q47.95 0.7 46.89 0.48 45.84 0.25 44.95-0.1L44.95-0.1Q44.39-0.4 43.87-0.73 43.34-1.05 42.84-1.35L42.84-1.35Q42.34-1.7 41.95-1.25 41.55-0.8 41.34 0.35L41.34 0.35 40.24 0.35Q40.34-1.25 40.39-3.55 40.45-5.85 40.45-9.65L40.45-9.65 41.55-9.65Q41.89-6.9 42.59-4.8 43.3-2.7 44.67-1.53 46.05-0.35 48.45-0.35L48.45-0.35Q49.84-0.35 51.2-1.33 52.55-2.3 52.55-4.7L52.55-4.7Q52.55-6.9 51.02-8.33 49.49-9.75 47.09-11.35L47.09-11.35Q45.39-12.55 43.87-13.73 42.34-14.9 41.39-16.38 40.45-17.85 40.45-19.9L40.45-19.9Q40.45-22.15 41.52-23.6 42.59-25.05 44.39-25.78 46.2-26.5 48.24-26.5ZM70.19-39.15L70.19-39.15 70.19-20.95Q71.44-24.05 73.72-25.28 75.99-26.5 78.54-26.5L78.54-26.5Q80.54-26.5 81.82-25.98 83.09-25.45 83.94-24.55L83.94-24.55Q84.84-23.6 85.24-22.1 85.64-20.6 85.64-18.05L85.64-18.05 85.64-4.65Q85.64-2.55 86.47-1.8 87.29-1.05 89.24-1.05L89.24-1.05 89.24 0Q88.34-0.05 86.54-0.13 84.74-0.2 83.04-0.2L83.04-0.2Q81.29-0.2 79.62-0.13 77.94-0.05 77.14 0L77.14 0 77.14-1.05Q78.84-1.05 79.54-1.8 80.24-2.55 80.24-4.65L80.24-4.65 80.24-19.45Q80.24-20.9 79.99-22.08 79.74-23.25 78.92-23.98 78.09-24.7 76.49-24.7L76.49-24.7Q73.79-24.7 71.99-22.48 70.19-20.25 70.19-16.75L70.19-16.75 70.19-4.65Q70.19-2.55 70.89-1.8 71.59-1.05 73.29-1.05L73.29-1.05 73.29 0Q72.44-0.05 70.82-0.13 69.19-0.2 67.49-0.2L67.49-0.2Q65.74-0.2 63.92-0.13 62.09-0.05 61.19 0L61.19 0 61.19-1.05Q63.14-1.05 63.97-1.8 64.79-2.55 64.79-4.65L64.79-4.65 64.79-33.15Q64.79-35.4 64.02-36.48 63.24-37.55 61.19-37.55L61.19-37.55 61.19-38.6Q62.79-38.45 64.29-38.45L64.29-38.45Q65.94-38.45 67.44-38.63 68.94-38.8 70.19-39.15ZM97.99 0.35L97.99 0.35Q94.69 0.35 93.22-1.33 91.74-3 91.74-5.6L91.74-5.6Q91.74-7.75 92.74-9.1 93.74-10.45 95.31-11.33 96.89-12.2 98.66-12.83 100.44-13.45 102.02-14.03 103.59-14.6 104.61-15.35 105.64-16.1 105.64-17.25L105.64-17.25 105.64-20.65Q105.64-22.45 105.06-23.53 104.49-24.6 103.52-25.05 102.54-25.5 101.19-25.5L101.19-25.5Q100.04-25.5 98.74-25.18 97.44-24.85 96.69-23.9L96.69-23.9Q97.79-23.6 98.52-22.73 99.24-21.85 99.24-20.55L99.24-20.55Q99.24-19.15 98.31-18.35 97.39-17.55 95.99-17.55L95.99-17.55Q94.44-17.55 93.69-18.53 92.94-19.5 92.94-20.8L92.94-20.8Q92.94-22.15 93.61-23 94.29-23.85 95.39-24.6L95.39-24.6Q96.59-25.4 98.47-25.95 100.34-26.5 102.64-26.5L102.64-26.5Q104.79-26.5 106.36-26.03 107.94-25.55 108.99-24.5L108.99-24.5Q110.24-23.35 110.64-21.63 111.04-19.9 111.04-17.45L111.04-17.45 111.04-3.65Q111.04-2.45 111.34-1.9 111.64-1.35 112.44-1.35L112.44-1.35Q113.04-1.35 113.54-1.65 114.04-1.95 114.54-2.35L114.54-2.35 115.04-1.5Q113.99-0.65 112.91-0.15 111.84 0.35 110.19 0.35L110.19 0.35Q107.44 0.35 106.56-0.95 105.69-2.25 105.64-3.95L105.64-3.95Q104.19-1.5 102.22-0.58 100.24 0.35 97.99 0.35ZM100.74-2.05L100.74-2.05Q102.04-2.05 103.29-2.78 104.54-3.5 105.64-5.25L105.64-5.25 105.64-15.2Q104.94-14.15 103.52-13.5 102.09-12.85 100.61-12.08 99.14-11.3 98.09-10 97.04-8.7 97.04-6.4L97.04-6.4Q97.04-4.15 98.09-3.1 99.14-2.05 100.74-2.05ZM132.19-26.5L132.19-26.5Q136.19-26.5 138.86-23.18 141.54-19.85 141.54-13.1L141.54-13.1Q141.54-8.35 139.99-5.3 138.44-2.25 135.86-0.78 133.29 0.7 130.29 0.7L130.29 0.7Q127.94 0.7 125.79-0.48 123.64-1.65 122.49-4.05L122.49-4.05 123.39-3.8Q124.49-2.1 126.14-1.25 127.79-0.4 129.49-0.4L129.49-0.4Q132.64-0.4 134.21-3.45 135.79-6.5 135.79-12.85L135.79-12.85Q135.79-17 135.16-19.65 134.54-22.3 133.31-23.53 132.09-24.75 130.24-24.75L130.24-24.75Q128.09-24.75 126.29-22.9 124.49-21.05 124.14-17.55L124.14-17.55 123.64-18.6Q124.34-22.35 126.66-24.43 128.99-26.5 132.19-26.5ZM124.44-39.15L124.44-39.15 124.44-2.05Q123.59-1.75 122.69-1.3 121.79-0.85 120.99-0.33 120.19 0.2 119.49 0.8L119.49 0.8 118.69 0.4Q118.89-0.3 118.96-1 119.04-1.7 119.04-2.45L119.04-2.45 119.04-33.15Q119.04-35.4 118.26-36.48 117.49-37.55 115.44-37.55L115.44-37.55 115.44-38.6Q117.04-38.45 118.54-38.45L118.54-38.45Q120.19-38.45 121.69-38.63 123.19-38.8 124.44-39.15ZM153.24-39.15L153.24-39.15 153.24-20.95Q154.49-24.05 156.76-25.28 159.04-26.5 161.59-26.5L161.59-26.5Q163.59-26.5 164.86-25.98 166.14-25.45 166.99-24.55L166.99-24.55Q167.89-23.6 168.29-22.1 168.69-20.6 168.69-18.05L168.69-18.05 168.69-4.65Q168.69-2.55 169.51-1.8 170.34-1.05 172.29-1.05L172.29-1.05 172.29 0Q171.39-0.05 169.59-0.13 167.79-0.2 166.09-0.2L166.09-0.2Q164.34-0.2 162.66-0.13 160.99-0.05 160.19 0L160.19 0 160.19-1.05Q161.89-1.05 162.59-1.8 163.29-2.55 163.29-4.65L163.29-4.65 163.29-19.45Q163.29-20.9 163.04-22.08 162.79-23.25 161.96-23.98 161.14-24.7 159.54-24.7L159.54-24.7Q156.84-24.7 155.04-22.48 153.24-20.25 153.24-16.75L153.24-16.75 153.24-4.65Q153.24-2.55 153.94-1.8 154.64-1.05 156.34-1.05L156.34-1.05 156.34 0Q155.49-0.05 153.86-0.13 152.24-0.2 150.54-0.2L150.54-0.2Q148.79-0.2 146.96-0.13 145.14-0.05 144.24 0L144.24 0 144.24-1.05Q146.19-1.05 147.01-1.8 147.84-2.55 147.84-4.65L147.84-4.65 147.84-33.15Q147.84-35.4 147.06-36.48 146.29-37.55 144.24-37.55L144.24-37.55 144.24-38.6Q145.84-38.45 147.34-38.45L147.34-38.45Q148.99-38.45 150.49-38.63 151.99-38.8 153.24-39.15Z" opacity="1" transform="matrix(1,0,0,1,0,0)" fill="#f7e1e1" class="undefined-text-0" data-fill-palette-color="primary" id="text-0"></path></svg></g></svg></g></svg></g></svg></g><g></g></svg></g></svg></g></svg></g></svg></g><defs></defs></svg><rect width="395.52" height="247.2" fill="none" stroke="none" visibility="hidden"></rect></g></svg></g></svg>